v 0.6112271547 -1.002102017 -0.3407815993
vn 0.9871477485 -0.05352011323 -0.1505819857
v 0.6112271547 -1.002102017 0.2256185114
vn 0.9956501722 -0.0539810881 0.07593948394
v 0.6112271547 0.5914980173 0.2256185114
vn 0.9513741136 0.1031611562 0.2902499735
v 0.6112271547 0.5914980173 -0.3407815993
vn 0.988209784 0.02678884752 -0.1507439911
v 0.5248271227 -1.002102017 -0.3407815993
vn -0.9513741136 -0.1031611562 -0.2902499735
v 0.5248271227 0.5914980173 -0.3407815993
vn -0.9956501722 0.0539810881 -0.07593948394
v 0.5248271227 0.5914980173 0.2256185114
vn -0.9871477485 0.05352011323 0.1505819857
v 0.5248271227 -1.002102017 0.2256185114
vn -0.988209784 -0.02678884752 0.1507439911
v 0.5248271227 -1.002102017 -0.3407813013
vn 0.0814133361 -0.9860063195 -0.1454763263
v 0.5248271227 -1.002102017 0.2448186129
vn 0.08206724375 -0.9939259291 0.073322393
v 0.5248271227 -0.9157019854 0.2448186129
vn 0.04080822319 0.9884662628 0.145839259
v 0.5248271227 -0.9157019854 -0.3407813013
vn 0.1564358324 0.9473062754 -0.2795329392
v -0.5215730667 -1.002102017 -0.3407813013
vn -0.04080822319 -0.9884662628 -0.145839259
v -0.5215730667 -0.9157019854 -0.3407813013
vn -0.08206724375 0.9939259291 -0.073322393
v -0.5215730667 -0.9157019854 0.2448186129
vn -0.0814133361 0.9860063195 0.1454763263
v -0.5215730667 -1.002102017 0.2448186129
vn -0.1564358324 -0.9473062754 0.2795329392
v -0.5215727687 -1.002102017 -0.3407818079
vn 0.9871477485 -0.05352018401 -0.1505817175
v -0.5215727687 -1.002102017 0.2256182134
vn 0.9956501126 -0.05398125947 0.07593974471
v -0.5215725899 0.5914978385 0.2256186157
vn 0.951374054 0.103160888 0.2902503014
v -0.5215724111 0.5914980173 -0.3407813013
vn 0.9882098436 0.0267887339 -0.1507437378
v -0.6079727411 -1.002102017 -0.3407818079
vn -0.951374054 -0.1031609401 -0.290250212
v -0.6079725623 0.5914980173 -0.3407813013
vn -0.9956501126 0.05398125574 -0.07593973726
v -0.6079725623 0.5914978385 0.2256186157
vn -0.9871477485 0.05352026969 0.1505817622
v -0.6079729795 -1.002102017 0.2256182134
vn -0.9882098436 -0.02678873017 0.1507437378
v 0.5248274207 0.5914980173 0.2256183475
vn 0.08135378361 0.9852877855 0.1502980143
v 0.5248274207 0.5914980173 -0.3407815993
vn 0.082051754 0.9937418103 -0.07579381019
v 0.5248274207 0.5050981641 -0.3407815993
vn 0.04077843204 -0.9877423644 -0.1506723911
v 0.5248274207 0.5050981641 0.2256183475
vn 0.1560162902 -0.9447648525 0.288233012
v -0.5215727687 0.5914978385 0.2256186157
vn -0.04077845812 0.9877423644 0.1506723911
v -0.5215727687 0.5050979257 0.2256186157
vn -0.082051754 -0.9937418103 0.07579375803
v -0.5215727687 0.5050979257 -0.3407813013
vn -0.08135378361 -0.9852878451 -0.1502979249
v -0.5215727687 0.5914978385 -0.3407813013
vn -0.1560162306 0.9447648525 -0.288233012
v -0.5311726332 -0.9157019854 -0.2543812096
vn -0.08141320199 -0.05704084784 0.995046854
v -0.5311726332 -0.9157019854 -0.3407813013
vn -0.1604648381 -0.1124278232 -0.980617702
v -0.5311726332 0.5914980173 -0.3407815993
vn -0.04080788791 0.05718315765 -0.9975293279
v -0.5311726332 0.5914980173 -0.2543814182
vn -0.08151277155 0.02855550312 0.9962631464
v 0.5248274207 -0.9157019854 -0.2543810308
vn 0.04080788791 -0.05718315765 0.9975293279
v 0.5248274207 0.5914980173 -0.2543812096
vn 0.1604647338 0.1124278307 0.980617702
v 0.5248274207 0.5914980173 -0.3407813013
vn 0.08141331375 0.05704084784 -0.995046854
v 0.5248274207 -0.9157019854 -0.3407811522
vn 0.08151277155 -0.02855550312 -0.9962631464
v -0.03197258711 0.5818978548 -0.3695813417
vn -0.3950669765 -0.8894742727 -0.2296901643
v -0.03197258711 0.7354978919 -0.3695816398
vn -0.6966335177 0.6966324449 -0.1714789271
v -0.03197258711 0.7354978919 0.2544184029
vn -0.3843443096 0.9062995911 -0.175785467
v 0.04482734203 0.7354978919 0.2544184029
vn 0.3927457333 0.8842483163 0.2526969612
v 0.04482734203 0.7354978919 -0.3695813417
vn 0.8890568018 0.4445275366 -0.1094222665
v 0.04482734203 0.5818978548 -0.3695813417
vn 0.4900317788 0.8208988309 -0.2932472825
v -0.6751727462 0.5818978548 0.2448184341
vn -0.2104842961 -0.9429346323 0.2580129504
v 0.6208272576 0.5818978548 0.2256186157
vn 0.1824262887 -0.9596970081 0.2137808949
v 0.5248276591 -0.4399849474 -0.3116231561
vn 0.04290128872 -0.997692287 -0.05262645707
v 0.5248276591 -0.4213021994 0.1872185022
vn 0.02174407989 0.9983131289 0.05383425578
v 0.5248276591 -0.4213021994 -0.3119816184
vn 0.01782714762 0.9970439076 -0.07473688573
v -0.5215725899 -0.4399849474 -0.3116231561
vn -0.02174407989 -0.9983131289 -0.05383425578
v -0.5215725899 -0.4213021994 -0.3119816184
vn -0.00892844703 0.999785006 -0.01871539839
v -0.5215725899 -0.4213021994 0.1872185022
vn -0.04290128872 0.997692287 0.05262645707
v -0.5311726332 -0.4495849609 0.2163769752
vn -0.02994371019 -0.994530797 0.1000591964
v 0.5152276754 -0.4495849609 0.2163769752
vn 0.01357524283 -0.9998676181 0.008971095085
v -0.6079729795 -1.002102017 0.3120181262
vn -0.5773488283 -0.5773511529 0.5773508549
v -0.6079729795 -1.002102017 0.2256182134
vn -0.666665256 -0.6666678786 -0.3333337605
v -0.6079729795 -0.9157021046 0.2256182134
vn -0.3333322406 0.6666671038 -0.6666668057
v -0.6079729795 -0.9157021046 0.3120181262
vn -0.6666653156 0.3333339989 0.6666676402
v -0.5215727687 -1.002102017 0.3120181262
vn 0.3333322406 -0.6666671038 0.6666668057
v -0.5215727687 -0.9157021046 0.3120181262
vn 0.666665256 0.6666678786 0.3333337605
v -0.5215727687 -0.9157021046 0.2256182134
vn 0.5773488283 0.5773511529 -0.5773508549
v -0.5215727687 -1.002102017 0.2256182134
vn 0.6666653156 -0.3333339989 -0.6666676402
v 0.5248271227 -1.002102017 0.3120184243
vn -0.5773496032 -0.577350378 0.5773508549
v 0.5248271227 -1.002102017 0.2256185114
vn -0.6666660905 -0.6666669846 -0.3333337605
v 0.5248271227 -0.9157019854 0.2256185114
vn -0.3333328068 0.6666665077 -0.6666670442
v 0.5248271227 -0.9157019854 0.3120184243
vn -0.6666659117 0.3333334029 0.6666673422
v 0.6112271547 -1.002102017 0.3120184243
vn 0.3333328068 -0.6666665077 0.6666670442
v 0.6112271547 -0.9157019854 0.3120184243
vn 0.6666660905 0.6666669846 0.3333337605
v 0.6112271547 -0.9157019854 0.2256185114
vn 0.5773496032 0.577350378 -0.5773508549
v 0.6112271547 -1.002102017 0.2256185114
vn 0.6666659117 -0.3333334029 -0.6666673422
v 0.5248276591 0.05921501666 -0.3020229638
vn 0.04290119186 -0.997692287 -0.05262634531
v 0.5248276591 0.07789772004 0.1968186051
vn 0.02174402028 0.9983131289 0.05383415893
v 0.5248276591 0.07789772004 -0.3023814261
vn 0.0178270936 0.9970439672 -0.07473663241
v -0.5215725899 0.05921501666 -0.302023232
vn -0.02174402028 -0.9983131289 -0.05383415893
v -0.5215725899 0.07789772004 -0.3023814261
vn -0.008928417228 0.999785006 -0.01871533878
v -0.5215725899 0.07789772004 0.1968186051
vn -0.04290120304 0.997692287 0.05262637511
v -0.5311726332 0.04961502925 0.2259769887
vn -0.02994367294 -0.9945308566 0.1000589654
v 0.5152276754 0.04961502925 0.2259772867
vn 0.01357521489 -0.9998676181 0.00897103548
v 0.6112271547 0.5434981585 0.2064185888
vn 0.06208111346 -0.9855360389 0.1576854438
v -0.6079729795 0.5434978604 0.2064184397
vn -0.03108521365 -0.9869634509 0.1579140872
v -0.6079736948 0.6202978492 0.2064184397
vn -0.06266823411 0.9948559403 0.07958853245
v 0.6112279296 0.620298028 0.2064185888
vn 0.1191354692 0.9456409812 0.3026051819
v 0.6112275124 0.5434981585 -0.2735814154
vn 0.06266823411 -0.9948559999 -0.07958825678
v 0.611228168 0.620298028 -0.2735814154
vn 0.03108526394 0.9869634509 -0.1579139978
v -0.607973516 0.6202978492 -0.2735815942
vn -0.06208110973 0.9855359197 -0.1576859653
v -0.6079727411 0.5434978604 -0.2735815942
vn -0.1191354766 -0.9456411004 -0.3026048541
v -0.6943727732 0.581897974 0.2376845777
vn -0.03493276611 -0.9665864706 0.2539493442
v -0.6943727732 0.581897974 -0.3575153351
vn -0.02990755998 -0.9910874963 -0.1298117191
v -0.6079725623 0.658698082 -0.3671153486
vn -0.1393187195 0.9887678027 -0.05411621183
v -0.6079725623 0.6586982608 0.2280845344
vn -0.2538827956 0.9633980989 0.08606729656
v 0.02577521466 0.6383165717 0.2376846522
vn 0.1307024509 -0.9893302321 0.06436289102
v 0.01617522724 0.7151164412 0.2472845763
vn 0.02990755998 0.9910874963 0.1298117191
v 0.01617522724 0.7151164412 -0.347915411
vn 0.03493289277 0.966586411 -0.2539494932
v 0.02577521466 0.6383163333 -0.3575153351
vn 0.2878548503 -0.9489232302 -0.1291676611
v -0.01277260482 0.620298028 0.2832185328
vn -0.6745780706 -0.2998124659 0.6745790839
v -0.01277260482 0.620298028 0.2448186129
vn -0.8311625719 -0.3694055676 -0.415581882
v -0.01277260482 0.7066979408 0.2448186129
vn -0.4155809581 0.3694052994 -0.831163168
v -0.01277260482 0.7066979408 0.2832185328
vn -0.6985349655 0.1552299857 0.6985359788
v 0.02562735789 0.620298028 0.2832185328
vn 0.4155809581 -0.3694052994 0.831163168
v 0.02562735789 0.7066979408 0.2832185328
vn 0.8311625719 0.3694055676 0.415581882
v 0.02562735789 0.7066979408 0.2448186129
vn 0.6745780706 0.2998124659 -0.6745790839
v 0.02562735789 0.620298028 0.2448186129
vn 0.6985349655 -0.1552299857 -0.6985359788
v 0.6210488677 0.6591410041 0.2256186157
vn 0.1354886293 0.9893300533 0.0535620451
v 0.6210485697 0.6591408849 -0.3695813417
vn 0.251712501 0.9636783004 -0.08924630284
v 0.7074487209 0.5823409557 -0.3599815667
vn 0.03873892874 -0.9663296938 -0.2543742359
v 0.7074490786 0.5823409557 0.2352185994
vn 0.04581422359 -0.990357101 0.1307436675
v 0.006205358543 0.631965518 -0.3599813282
vn -0.1255692691 -0.9899264574 -0.06540641189
v 0.01580534875 0.7087656856 -0.3503811359
vn -0.04581422359 0.990357101 -0.1307436675
v 0.015805576 0.7087653279 0.244818911
vn -0.03873908147 0.9663296342 0.2543744147
v 0.006205586717 0.631965518 0.2352188975
vn -0.2800653279 -0.9517679214 0.1253047585
# mm_gid 0
g mmGroup0
f 43//43 42//42 41//41 
f 46//46 45//45 44//44 
f 44//44 43//43 47//47 
f 44//44 48//48 46//46 
f 47//47 48//48 44//44 
f 41//41 47//47 43//43 
f 51//51 50//50 49//49 
f 54//54 53//53 52//52 
f 50//50 56//56 49//49 
f 52//52 55//55 54//54 
f 75//75 74//74 73//73 
f 78//78 77//77 76//76 
f 74//74 80//80 73//73 
f 76//76 79//79 78//78 
f 93//93 94//94 89//89 
f 95//95 96//96 90//90 
f 94//94 92//92 89//89 
f 90//90 91//91 95//95 
f 108//108 111//111 112//112 
f 107//107 109//109 110//110 
f 108//108 105//105 111//111 
f 110//110 106//106 107//107 
f 4//4 3//3 2//2 
f 4//4 2//2 1//1 
f 8//8 7//7 6//6 
f 8//8 6//6 5//5 
f 2//2 8//8 5//5 
f 2//2 5//5 1//1 
f 6//6 7//7 3//3 
f 6//6 3//3 4//4 
f 5//5 6//6 4//4 
f 5//5 4//4 1//1 
f 3//3 7//7 8//8 
f 3//3 8//8 2//2 
f 12//12 11//11 10//10 
f 12//12 10//10 9//9 
f 16//16 15//15 14//14 
f 16//16 14//14 13//13 
f 10//10 16//16 13//13 
f 10//10 13//13 9//9 
f 14//14 15//15 11//11 
f 14//14 11//11 12//12 
f 13//13 14//14 12//12 
f 13//13 12//12 9//9 
f 11//11 15//15 16//16 
f 11//11 16//16 10//10 
f 20//20 19//19 18//18 
f 20//20 18//18 17//17 
f 24//24 23//23 22//22 
f 24//24 22//22 21//21 
f 18//18 24//24 21//21 
f 18//18 21//21 17//17 
f 22//22 23//23 19//19 
f 22//22 19//19 20//20 
f 21//21 22//22 20//20 
f 21//21 20//20 17//17 
f 19//19 23//23 24//24 
f 19//19 24//24 18//18 
f 28//28 27//27 26//26 
f 28//28 26//26 25//25 
f 32//32 31//31 30//30 
f 32//32 30//30 29//29 
f 26//26 32//32 29//29 
f 26//26 29//29 25//25 
f 30//30 31//31 27//27 
f 30//30 27//27 28//28 
f 29//29 30//30 28//28 
f 29//29 28//28 25//25 
f 27//27 31//31 32//32 
f 27//27 32//32 26//26 
f 36//36 35//35 34//34 
f 36//36 34//34 33//33 
f 40//40 39//39 38//38 
f 40//40 38//38 37//37 
f 34//34 40//40 37//37 
f 34//34 37//37 33//33 
f 38//38 39//39 35//35 
f 38//38 35//35 36//36 
f 37//37 38//38 36//36 
f 37//37 36//36 33//33 
f 35//35 39//39 40//40 
f 35//35 40//40 34//34 
f 41//41 46//46 48//48 
f 41//41 48//48 47//47 
f 44//44 45//45 42//42 
f 44//44 42//42 43//43 
f 42//42 45//45 46//46 
f 42//42 46//46 41//41 
f 56//56 55//55 52//52 
f 56//56 52//52 49//49 
f 53//53 54//54 50//50 
f 53//53 50//50 51//51 
f 52//52 53//53 51//51 
f 52//52 51//51 49//49 
f 50//50 54//54 55//55 
f 50//50 55//55 56//56 
f 60//60 59//59 58//58 
f 60//60 58//58 57//57 
f 64//64 63//63 62//62 
f 64//64 62//62 61//61 
f 58//58 64//64 61//61 
f 58//58 61//61 57//57 
f 62//62 63//63 59//59 
f 62//62 59//59 60//60 
f 61//61 62//62 60//60 
f 61//61 60//60 57//57 
f 59//59 63//63 64//64 
f 59//59 64//64 58//58 
f 68//68 67//67 66//66 
f 68//68 66//66 65//65 
f 72//72 71//71 70//70 
f 72//72 70//70 69//69 
f 66//66 72//72 69//69 
f 66//66 69//69 65//65 
f 70//70 71//71 67//67 
f 70//70 67//67 68//68 
f 69//69 70//70 68//68 
f 69//69 68//68 65//65 
f 67//67 71//71 72//72 
f 67//67 72//72 66//66 
f 80//80 79//79 76//76 
f 80//80 76//76 73//73 
f 77//77 78//78 74//74 
f 77//77 74//74 75//75 
f 76//76 77//77 75//75 
f 76//76 75//75 73//73 
f 74//74 78//78 79//79 
f 74//74 79//79 80//80 
f 84//84 83//83 82//82 
f 84//84 82//82 81//81 
f 88//88 87//87 86//86 
f 88//88 86//86 85//85 
f 82//82 88//88 85//85 
f 82//82 85//85 81//81 
f 86//86 87//87 83//83 
f 86//86 83//83 84//84 
f 85//85 86//86 84//84 
f 85//85 84//84 81//81 
f 83//83 87//87 88//88 
f 83//83 88//88 82//82 
f 92//92 91//91 90//90 
f 92//92 90//90 89//89 
f 96//96 95//95 94//94 
f 96//96 94//94 93//93 
f 90//90 96//96 93//93 
f 90//90 93//93 89//89 
f 94//94 95//95 91//91 
f 94//94 91//91 92//92 
f 108//108 107//107 106//106 
f 108//108 106//106 105//105 
f 112//112 111//111 110//110 
f 112//112 110//110 109//109 
f 108//108 112//112 109//109 
f 108//108 109//109 107//107 
f 105//105 106//106 110//110 
f 105//105 110//110 111//111 
f 100//100 99//99 98//98 
f 100//100 98//98 97//97 
f 104//104 103//103 102//102 
f 104//104 102//102 101//101 
f 98//98 104//104 101//101 
f 98//98 101//101 97//97 
f 102//102 103//103 99//99 
f 102//102 99//99 100//100 
f 101//101 102//102 100//100 
f 101//101 100//100 97//97 
f 99//99 103//103 104//104 
f 99//99 104//104 98//98 
